<svg width="26" height="26" viewBox="0 0 26 26" fill="none" xmlns="http://www.w3.org/2000/svg">
<rect x="0.4187" y="0.4187" width="25.1626" height="25.1626" rx="12.5813" stroke="#0071BC" stroke-width="0.8374"/>
<path d="M13.1438 7.25077C13.5999 7.24902 14.056 7.2536 14.512 7.26452L14.6332 7.26889C14.7732 7.27389 14.9113 7.28014 15.0782 7.28764C15.7432 7.31889 16.197 7.42389 16.5951 7.57827C17.0076 7.73702 17.3551 7.95202 17.7026 8.29952C18.0203 8.61177 18.2662 8.98949 18.4232 9.40639C18.5776 9.80452 18.6826 10.2589 18.7138 10.9239C18.7213 11.0901 18.7276 11.2289 18.7326 11.3689L18.7363 11.4901C18.7474 11.9459 18.7522 12.4018 18.7507 12.8576L18.7513 13.3239V14.1426C18.7529 14.5987 18.7481 15.0548 18.737 15.5108L18.7332 15.632C18.7282 15.772 18.722 15.9101 18.7145 16.077C18.6832 16.742 18.577 17.1958 18.4232 17.5939C18.2667 18.0112 18.0208 18.3893 17.7026 18.7014C17.3901 19.0191 17.0122 19.265 16.5951 19.422C16.197 19.5764 15.7432 19.6814 15.0782 19.7126C14.9113 19.7201 14.7732 19.7264 14.6332 19.7314L14.512 19.7351C14.056 19.7463 13.5999 19.751 13.1438 19.7495L12.6776 19.7501H11.8595C11.4034 19.7517 10.9473 19.7469 10.4913 19.7358L10.3701 19.732C10.2217 19.7266 10.0734 19.7204 9.92509 19.7133C9.26009 19.682 8.80634 19.5758 8.40759 19.422C7.99051 19.2654 7.61274 19.0194 7.30071 18.7014C6.98262 18.3891 6.73648 18.0111 6.57946 17.5939C6.42509 17.1958 6.32009 16.742 6.28884 16.077C6.28188 15.9287 6.27563 15.7804 6.27009 15.632L6.26696 15.5108C6.25544 15.0548 6.25023 14.5987 6.25134 14.1426V12.8576C6.24959 12.4018 6.25418 11.9459 6.26509 11.4901L6.26946 11.3689C6.27446 11.2289 6.28071 11.0901 6.28821 10.9239C6.31946 10.2583 6.42446 9.80514 6.57884 9.40639C6.73595 8.98928 6.98256 8.61167 7.30134 8.30014C7.61315 7.98186 7.99069 7.7355 8.40759 7.57827C8.80634 7.42389 9.25946 7.31889 9.92509 7.28764L10.3701 7.26889L10.4913 7.26577C10.9471 7.25425 11.403 7.24904 11.8588 7.25014L13.1438 7.25077ZM12.5013 10.3758C12.0873 10.3699 11.6762 10.4464 11.2919 10.6008C10.9077 10.7552 10.558 10.9844 10.2631 11.2752C9.96824 11.5659 9.73409 11.9124 9.57427 12.2944C9.41445 12.6764 9.33214 13.0864 9.33214 13.5005C9.33214 13.9146 9.41445 14.3245 9.57427 14.7065C9.73409 15.0886 9.96824 15.435 10.2631 15.7257C10.558 16.0165 10.9077 16.2457 11.2919 16.4001C11.6762 16.5545 12.0873 16.631 12.5013 16.6251C13.3301 16.6251 14.125 16.2959 14.711 15.7099C15.2971 15.1238 15.6263 14.3289 15.6263 13.5001C15.6263 12.6713 15.2971 11.8765 14.711 11.2904C14.125 10.7044 13.3301 10.3758 12.5013 10.3758ZM12.5013 11.6258C12.7504 11.6212 12.9979 11.6663 13.2293 11.7584C13.4608 11.8505 13.6715 11.9879 13.8493 12.1624C14.0271 12.3369 14.1683 12.545 14.2647 12.7747C14.3612 13.0044 14.4108 13.251 14.4109 13.5001C14.4109 13.7492 14.3613 13.9959 14.265 14.2256C14.1686 14.4553 14.0275 14.6635 13.8498 14.8381C13.6721 15.0127 13.4613 15.1501 13.2299 15.2423C12.9985 15.3345 12.751 15.3797 12.502 15.3751C12.0047 15.3751 11.5278 15.1776 11.1761 14.826C10.8245 14.4743 10.627 13.9974 10.627 13.5001C10.627 13.0029 10.8245 12.5259 11.1761 12.1743C11.5278 11.8227 12.0047 11.6251 12.502 11.6251L12.5013 11.6258ZM15.7826 9.43827C15.581 9.44634 15.3903 9.53211 15.2505 9.67763C15.1107 9.82314 15.0326 10.0171 15.0326 10.2189C15.0326 10.4207 15.1107 10.6146 15.2505 10.7602C15.3903 10.9057 15.581 10.9914 15.7826 10.9995C15.9898 10.9995 16.1885 10.9172 16.335 10.7707C16.4815 10.6242 16.5638 10.4255 16.5638 10.2183C16.5638 10.0111 16.4815 9.81235 16.335 9.66584C16.1885 9.51933 15.9898 9.43702 15.7826 9.43702V9.43827Z" fill="#0071BC"/>
</svg>
