<svg width="26" height="26" viewBox="0 0 26 26" fill="none" xmlns="http://www.w3.org/2000/svg">
<rect x="0.4187" y="0.4187" width="25.1626" height="25.1626" rx="12.5813" stroke="#0071BC" stroke-width="0.8374"/>
<path d="M9.33691 9.12514C9.33675 9.45666 9.20489 9.77453 8.97036 10.0088C8.73582 10.2431 8.41781 10.3747 8.08629 10.3745C7.75477 10.3743 7.43689 10.2425 7.20259 10.008C6.96829 9.77342 6.83675 9.45541 6.83691 9.12389C6.83708 8.79237 6.96893 8.47449 7.20347 8.24019C7.43801 8.00588 7.75602 7.87435 8.08754 7.87451C8.41906 7.87468 8.73694 8.00653 8.97124 8.24107C9.20554 8.47561 9.33708 8.79362 9.33691 9.12514ZM9.37441 11.3001H6.87441V19.1251H9.37441V11.3001ZM13.3244 11.3001H10.8369V19.1251H13.2994V15.0189C13.2994 12.7314 16.2807 12.5189 16.2807 15.0189V19.1251H18.7494V14.1689C18.7494 10.3126 14.3369 10.4564 13.2994 12.3501L13.3244 11.3001Z" fill="#0071BC"/>
</svg>
