<svg width="91" height="62" viewBox="0 0 91 62" fill="none" xmlns="http://www.w3.org/2000/svg">
<g clip-path="url(#clip0_4001_1152)">
<path d="M45.5756 0.789448C41.6082 0.94587 38.1029 2.35367 35.8988 4.67156C35.2518 5.35413 34.6545 6.1789 34.7541 6.25C34.7825 6.27133 34.8892 6.48463 34.9816 6.71926C35.6215 8.34037 36.9155 10.4307 38.1029 11.7319L38.4584 12.1229L38.3873 11.8741C38.2451 11.3693 38.11 10.253 38.11 9.58463C38.11 7.08899 39.461 4.99862 41.7575 3.95344C42.9876 3.39174 44.1038 3.17133 45.7534 3.17844C47.6233 3.18555 48.9316 3.48417 50.5243 4.27339C52.0387 5.01995 53.0839 6.01537 53.7096 7.28807C54.1717 8.23371 54.2784 8.72431 54.2784 9.95436C54.2713 11.028 54.1717 11.6537 53.8944 12.2794L53.7594 12.5851L54.0224 12.8411C54.5912 13.4028 55.6151 13.7014 56.71 13.6303C58.4947 13.5236 59.5327 12.0092 59.5399 9.4922C59.5399 8.1555 59.2199 7.0961 58.452 5.93004C56.7243 3.30642 53.5318 1.52179 49.4791 0.91743C48.6756 0.803668 46.8839 0.739677 45.5756 0.789448Z" fill="#FEFEFE"/>
<path d="M33.8234 8.16245C33.4181 9.31428 33.2617 10.3026 33.2617 11.7317C33.2617 16.1969 35.3734 19.176 39.9879 21.2166C41.289 21.7925 42.2986 22.1764 44.9934 23.1008C48.4986 24.3024 50.4895 25.1627 51.6555 25.9803C51.9115 26.1581 52.1461 26.3074 52.1675 26.3074C52.1888 26.3074 52.2528 26.3643 52.3097 26.4283C52.3665 26.4994 52.3879 26.5136 52.3594 26.4567C52.331 26.3998 52.4234 26.4425 52.5656 26.5491C52.7078 26.6629 52.8287 26.7696 52.8287 26.7838C52.8287 26.8051 52.7718 26.7767 52.7078 26.7269C52.6367 26.6771 52.658 26.7198 52.7505 26.8264C52.9282 27.0255 53.0562 27.0966 52.8998 26.9118C52.5656 26.5065 53.625 27.317 54.4285 28.0778C55.9287 29.4998 57.0805 30.9716 58.0404 32.678C58.4954 33.4957 59.1282 34.9177 59.3771 35.6714C59.4624 35.9558 59.5619 36.1904 59.5833 36.1904C59.6402 36.1904 60.0454 34.8964 60.1805 34.2707C60.7493 31.704 60.3441 28.2556 59.2136 26.0372C57.6636 22.987 54.8266 21.0957 48.9537 19.1973C45.3204 18.0241 42.9528 17.0643 41.6658 16.2253C41.4525 16.0831 41.2535 15.9693 41.225 15.9622C41.1966 15.9622 41.1255 15.8982 41.0615 15.82C40.9975 15.7418 40.9691 15.7205 40.9904 15.7774C41.0259 15.8413 40.9833 15.8342 40.8553 15.7489C40.6704 15.628 40.5922 15.5143 40.7629 15.6138C40.8055 15.6423 40.77 15.5783 40.6775 15.4787C40.578 15.3721 40.4856 15.2868 40.4714 15.2868C40.45 15.2868 40.4927 15.3507 40.5638 15.429C40.7984 15.6849 40.5709 15.5783 40.0305 15.173C37.7908 13.495 36.0773 11.5184 34.7122 9.05121C34.5131 8.69571 34.2785 8.22644 34.186 8.00603L34.0154 7.61497L33.8234 8.16245Z" fill="#FEFEFE"/>
<path d="M32.7923 27.8359C32.0102 28.0563 31.2281 28.7815 30.8228 29.6561C30.2255 30.9714 30.1189 33.1827 30.581 34.8607C31.676 38.7996 35.5866 41.9494 40.9547 43.215C43.9551 43.926 47.5955 43.9971 50.2618 43.3999C53.0276 42.7813 55.2957 41.6366 57.0306 39.9799C57.9051 39.1409 58.8437 37.9322 58.7299 37.79C58.7015 37.7545 58.5877 37.399 58.481 37.0079C58.0189 35.3015 57.123 33.3889 56.1063 31.9242C55.6726 31.2985 55.1606 30.6373 55.1322 30.6657C55.118 30.6799 55.1535 30.943 55.2175 31.2558C55.3526 31.9811 55.3526 33.4884 55.2175 34.2705C54.6345 37.5483 52.1815 40.2146 48.9891 41.0535C47.24 41.5157 44.9719 41.4375 42.8744 40.8474C39.6749 39.9444 37.0939 37.6123 36.134 34.7327C35.8212 33.8155 35.7288 33.1471 35.7288 31.9242C35.7359 30.7866 35.8994 29.5636 36.1269 28.9593C36.326 28.4331 35.1813 27.8359 33.8517 27.7648C33.3682 27.7363 33.0625 27.7577 32.7923 27.8359Z" fill="#0071BC"/>
<path d="M4.23074 48.3202C2.40344 48.5904 1.32271 49.4365 0.888992 50.9438C0.70413 51.5695 0.71835 52.5365 0.917433 53.0626C1.42225 54.3638 2.6523 55.2028 5.22615 55.992C6.87569 56.5039 7.46583 56.9661 7.46583 57.7766C7.46583 58.3241 7.18142 58.7223 6.56996 59.0209C6.11491 59.2484 6.02959 59.2626 5.4039 59.2626C4.55069 59.2555 3.88945 59.0565 3.15 58.573C2.8656 58.3881 2.60252 58.2317 2.57408 58.2317C2.54564 58.2317 2.21147 58.5587 1.82752 58.9569L1.12363 59.6821L1.36537 59.8812C1.7422 60.1941 3.10734 60.8411 3.75436 61.0046C6.35665 61.6587 8.46835 60.9975 9.32156 59.2626C9.54908 58.7934 9.74106 58.0113 9.74106 57.5207C9.74106 55.8214 8.19817 54.442 5.36835 53.603C4.23785 53.2688 3.76858 53.0626 3.42019 52.7356C2.81583 52.1597 2.85138 51.3633 3.50551 50.7874C3.88945 50.4532 4.40849 50.3039 5.15505 50.311C6.04381 50.3253 6.70505 50.5812 7.35207 51.15C7.46583 51.2496 7.57959 51.3349 7.60092 51.3349C7.67913 51.3349 9.10115 49.8773 9.10115 49.7991C9.10115 49.6711 8.27638 49.1308 7.69335 48.8819C6.85436 48.5193 6.1078 48.3487 5.22615 48.3131C4.79954 48.2989 4.35161 48.306 4.23074 48.3202Z" fill="#FEFEFE"/>
<path d="M76.1852 54.712C74.6637 58.0964 73.4052 60.8977 73.391 60.9333C73.3768 60.976 73.7963 61.0044 74.5641 61.0044H75.7657L75.9364 60.592C76.0288 60.3716 76.2421 59.8881 76.4128 59.5326L76.7185 58.8714H79.2852C81.3116 58.8714 81.8449 58.85 81.8164 58.786C81.7951 58.7363 81.5818 58.2528 81.3401 57.7124L80.8921 56.7383H79.3066C78.432 56.7383 77.7139 56.7099 77.7139 56.6815C77.7139 56.653 78.2258 55.4941 78.8586 54.1076C79.4914 52.7211 80.0318 51.5053 80.0674 51.4129C80.1029 51.3204 80.1456 51.2565 80.1598 51.2707C80.174 51.2849 80.6433 52.3088 81.1979 53.5388C81.7524 54.7688 82.5203 56.4682 82.9043 57.3071C83.2811 58.1461 83.8144 59.3264 84.0774 59.9237L84.5609 61.0044H85.7554C86.4167 61.0044 86.957 60.9973 86.957 60.9831C86.957 60.976 85.6985 58.1817 84.1628 54.7831L81.3685 48.5973L80.1598 48.576L78.9582 48.5617L76.1852 54.712Z" fill="#FEFEFE"/>
<path d="M87.8096 54.7831V61.0044H88.9116H90.0137V54.7831V48.5617H88.9116H87.8096V54.7831Z" fill="#FEFEFE"/>
<path d="M11.5899 50.0479L10.5589 50.311L10.5376 54.0793C10.5234 56.3332 10.5447 58.061 10.5874 58.3881C10.7296 59.4332 11.3481 60.3007 12.2867 60.7415L12.763 60.969L14.1282 60.9904L15.4862 61.0188L15.2231 59.9594L14.9601 58.9071L14.1069 58.8716C12.7488 58.8076 12.7275 58.772 12.7275 56.7456V55.3165H13.6163C14.1069 55.3165 14.505 55.3023 14.505 55.281C14.505 55.2596 14.3913 54.7761 14.2491 54.2144L13.9931 53.1835H13.3603H12.7275V51.4771C12.7275 50.5385 12.7062 49.7706 12.6777 49.7777C12.6422 49.7777 12.1587 49.9057 11.5899 50.0479Z" fill="#FEFEFE"/>
<path d="M32.493 50.0481L31.462 50.3112L31.4407 54.3924C31.4265 58.8291 31.4265 58.822 31.8175 59.533C32.0877 60.0094 32.5925 60.4786 33.1258 60.7417L33.588 60.9692L34.9744 60.9906C36.0836 61.0119 36.3467 60.9977 36.3182 60.9195C36.2969 60.8697 36.176 60.3933 36.0481 59.853L35.8063 58.886L34.9247 58.8575L34.043 58.8362L33.8368 58.6016L33.6306 58.3741V56.8454V55.3167H34.4838C35.0384 55.3167 35.337 55.2883 35.337 55.2385C35.337 55.1745 35.1095 54.2431 34.9033 53.4468L34.8322 53.1837H34.235H33.6306V51.4773C33.6306 50.5387 33.6093 49.7708 33.5809 49.778C33.5453 49.778 33.0618 49.8988 32.493 50.0481Z" fill="#FEFEFE"/>
<path d="M20.0085 51.939C19.5819 52.0315 18.6078 52.4723 18.5225 52.6145C18.4301 52.7709 18.3448 52.6714 18.3448 52.4012V52.1168H17.2427H16.1406V56.5606V61.0044H17.2427H18.3376L18.359 58.4234C18.3803 55.8638 18.3803 55.8496 18.5509 55.5012C18.9704 54.6551 19.8734 54.0436 20.7124 54.0365H20.9044V52.9344V51.8324L20.6769 51.8395C20.5489 51.8395 20.2503 51.8893 20.0085 51.939Z" fill="#FEFEFE"/>
<path d="M24.8501 51.9037C23.8973 52.0388 23.0512 52.4654 22.3687 53.155C20.1645 55.3876 20.6907 59.3124 23.3783 60.706C24.2528 61.161 25.106 61.3174 26.0872 61.2108C26.7343 61.1397 27.4737 60.8908 27.4239 60.77C27.4026 60.7202 27.2533 60.3505 27.0898 59.9381C26.9262 59.5257 26.7627 59.1204 26.7343 59.0422C26.6774 58.8929 26.6632 58.8929 26.2934 58.9924C24.7861 59.3977 23.2716 58.2601 23.1934 56.6674C23.1152 55.0321 24.587 53.7736 26.1939 54.1007C26.7627 54.2216 27.0613 54.3851 27.4524 54.7975C28.1989 55.5867 28.2274 55.7147 28.2274 58.6369V61.0046H29.3294H30.4315V56.5608V52.117H29.3294H28.2274V52.444V52.7711L27.9999 52.6147C27.6443 52.38 26.9191 52.053 26.5778 51.9819C26.0872 51.8752 25.3122 51.8397 24.8501 51.9037Z" fill="#FEFEFE"/>
<path d="M40.8261 51.9037C40.4564 51.9819 39.9018 52.2592 39.4468 52.5863L39.1055 52.8423V52.4796V52.117H38.0034H36.9014V56.5608V61.0046H38.0034H39.1055V58.1037C39.1055 54.8402 39.1055 54.8828 39.6601 54.378C40.3142 53.7879 41.3878 53.9941 41.8642 54.8117L42.0562 55.1388L42.0775 58.0682L42.0988 61.0046H43.1654H44.2248V58.2815C44.2319 56.7884 44.2603 55.4303 44.2888 55.2597C44.3599 54.8971 44.6798 54.4136 44.9642 54.2429C45.4761 53.9301 46.1871 53.987 46.6422 54.3709C47.211 54.8615 47.211 54.826 47.211 58.1037V61.0046H48.3202H49.4222L49.4009 57.8193C49.3654 54.3212 49.3582 54.2501 48.9032 53.34C48.6188 52.7712 48.0642 52.2521 47.5096 52.0388C47.2039 51.9251 46.955 51.8824 46.4644 51.8824C45.4406 51.8824 44.5021 52.2095 43.8053 52.7996L43.5209 53.0484L43.3573 52.8209C43.144 52.5365 42.6108 52.1455 42.2553 52.0175C41.8784 51.8824 41.1959 51.8326 40.8261 51.9037Z" fill="#FEFEFE"/>
<path d="M53.8947 51.9464C53.0628 52.0886 52.2736 52.5152 51.6266 53.1693C50.6952 54.1078 50.2686 55.1672 50.2686 56.5608C50.2686 57.9473 50.6952 59.0138 51.6195 59.9381C52.3874 60.706 53.141 61.0686 54.2858 61.2179C55.0181 61.3104 56.3619 61.1042 56.625 60.8624C56.6605 60.8269 56.5254 60.4003 56.3121 59.867C55.9495 58.9569 55.9282 58.9285 55.7504 58.9711C54.6413 59.2129 53.8307 58.9996 53.1339 58.2886C52.75 57.8904 52.558 57.4994 52.4656 56.9519C52.2096 55.3379 53.5676 53.8945 55.1958 54.0652C56.0419 54.1505 56.8383 54.7122 57.2364 55.5014L57.4142 55.8498L57.4355 58.4237L57.4569 61.0046H58.5518H59.6539V56.5608V52.117H58.5518H57.4497V52.4441V52.764L57.2364 52.6147C56.7458 52.2663 55.9851 51.9819 55.3452 51.9037C54.6413 51.8255 54.627 51.8255 53.8947 51.9464Z" fill="#FEFEFE"/>
<path d="M64.7452 51.9106C64.283 51.9817 63.7285 52.2092 63.245 52.5434L62.925 52.7638V52.4367V52.1168H61.8585H60.792V56.5606V61.0044H61.8514H62.9179L62.9392 58.3168C62.9606 55.6932 62.9606 55.6292 63.1241 55.2808C63.7569 53.9085 65.4349 53.617 66.4658 54.7049C67.0347 55.3092 67.0489 55.3874 67.0489 58.4234V61.0044H68.158H69.2601L69.2317 58.139C69.2032 55.0035 69.1961 54.9324 68.734 53.9725C68.4353 53.3468 67.6035 52.5007 67.0204 52.2305C66.6152 52.0386 65.7122 51.8324 65.3425 51.8466C65.2429 51.8466 64.9798 51.875 64.7452 51.9106Z" fill="#FEFEFE"/>
</g>
<defs>
<clipPath id="clip0_4001_1152">
<rect width="90.7248" height="62" fill="white"/>
</clipPath>
</defs>
</svg>
